<svg aria-hidden="true" style="position: absolute; width: 0; height: 0; overflow: hidden;" version="1.1" xmlns="http://www.w3.org/2000/svg" xmlns:xlink="http://www.w3.org/1999/xlink">
<defs>
<symbol id="icon-Arrow-_white_icon" viewBox="0 0 82 32">
<path fill="#fcfcfc" style="fill: var(--color1, #fcfcfc)" d="M81.414 17.414c0.362-0.362 0.586-0.862 0.586-1.414s-0.224-1.052-0.586-1.414l-12.728-12.728c-0.364-0.377-0.874-0.611-1.439-0.611-1.105 0-2 0.895-2 2 0 0.565 0.234 1.074 0.61 1.438l0.001 0.001 11.314 11.314-11.314 11.314c-0.347 0.359-0.561 0.849-0.561 1.389 0 1.105 0.895 2 2 2 0.54 0 1.030-0.214 1.39-0.562l-0.001 0.001 12.728-12.728zM0 18h80v-4h-80v4z"></path>
</symbol>
<symbol id="icon-Arrow_black_icon" viewBox="0 0 82 32">
<path d="M81.414 17.414c0.362-0.362 0.586-0.862 0.586-1.414s-0.224-1.052-0.586-1.414l-12.728-12.728c-0.364-0.377-0.874-0.611-1.439-0.611-1.105 0-2 0.895-2 2 0 0.565 0.234 1.074 0.61 1.438l0.001 0.001 11.314 11.314-11.314 11.314c-0.347 0.359-0.561 0.849-0.561 1.389 0 1.105 0.895 2 2 2 0.54 0 1.030-0.214 1.39-0.562l-0.001 0.001 12.728-12.728zM0 18h80v-4h-80v4z"></path>
</symbol>
<symbol id="btn_icon" viewBox="0 0 19 32">
<path fill="none" stroke-linejoin="round" stroke-linecap="round" stroke-miterlimit="4" stroke-width="5.3333" d="M3.787 3.091l11.413 11.877-11.413 11.88"></path>
</symbol>
<symbol id="icon-btn_icon_white" viewBox="0 0 19 32">
<path fill="none" stroke="#fcfcfc" style="stroke: var(--color1, #fcfcfc)" stroke-linejoin="round" stroke-linecap="round" stroke-miterlimit="4" stroke-width="5.3333" d="M3.787 3.091l11.413 11.877-11.413 11.88"></path>
</symbol>
<symbol id="icon-Burger" viewBox="0 0 50 32">
<path fill="none" stroke="#fff" style="stroke: var(--color2, #fff)" stroke-linejoin="miter" stroke-linecap="round" stroke-miterlimit="4" stroke-width="4.5714" d="M2.286 2.286h45.714M2.286 16h45.714M2.286 29.714h45.714"></path>
</symbol>
<symbol id="close_icon" viewBox="0 0 32 32">
<path  d="M28.614 1.13l-12.614 12.614-12.614-12.614c-0.283-0.26-0.662-0.419-1.078-0.419-0.882 0-1.597 0.715-1.597 1.597 0 0.416 0.159 0.795 0.42 1.079l-0.001-0.001 12.608 12.614-12.611 12.611c-0.309 0.292-0.502 0.704-0.502 1.161 0 0.881 0.714 1.595 1.595 1.595 0.233 0 0.455-0.050 0.654-0.14l-0.010 0.004c0.202-0.089 0.375-0.211 0.518-0.361l0.001-0.001 12.618-12.611 12.614 12.614c0.283 0.26 0.662 0.419 1.078 0.419 0.882 0 1.597-0.715 1.597-1.597 0-0.416-0.159-0.795-0.42-1.079l0.001 0.001-12.614-12.614 12.614-12.618c0.289-0.289 0.468-0.688 0.468-1.13 0-0.882-0.715-1.596-1.596-1.596-0.44 0-0.839 0.178-1.128 0.467l0-0v0.003z"></path>
</symbol>
<symbol id="icon-footer_facebook_icon_black" viewBox="0 0 16 32">
<path fill="#84a178" style="fill: var(--color3, #84a178)" d="M14.143 15.971h-4.033v14.865h-6.112v-14.865h-2.906v-5.222h2.906v-3.382c0-2.417 1.142-6.204 6.167-6.204l4.527 0.019v5.072h-3.284c-0.538 0-1.297 0.272-1.297 1.425v3.073h4.567l-0.534 5.219z"></path>
</symbol>
<symbol id="icon-footer_facebook_icon_white" viewBox="0 0 16 32">
<path fill="#fcfcfc" style="fill: var(--color1, #fcfcfc)" d="M14.266 15.97h-4.176v15.39h-6.326v-15.392h-3.011v-5.408h3.008v-3.498c0-2.504 1.184-6.422 6.384-6.422l4.688 0.019v5.25h-3.4c-0.557 0-1.342 0.282-1.342 1.475v3.184h4.73l-0.554 5.4z"></path>
</symbol>
<symbol id="icon-footer_github_icon_black" viewBox="0 0 32 32">
<path fill="#84a178" style="fill: var(--color3, #84a178)" d="M16 0c-8.789 0-16 7.211-16 16 0 7.499 5.262 14.312 12.25 16v-5.293c-0.276 0.070-0.593 0.109-0.919 0.109-0.398 0-0.781-0.059-1.143-0.169l0.028 0.007c-0.946-0.278-1.714-0.909-2.285-1.869-0.363-0.613-1.008-1.28-1.68-1.23l-0.165-1.867c1.454-0.125 2.71 0.886 3.456 2.139 0.333 0.558 0.715 0.885 1.205 1.029 0.472 0.141 0.981 0.074 1.573-0.136 0.149-1.186 0.693-1.629 1.104-2.256-4.168-0.621-5.829-2.832-6.488-4.576-0.874-2.318-0.405-5.213 1.139-7.043 0.030-0.035 0.085-0.128 0.064-0.192-0.709-2.141 0.154-3.91 0.186-4.098 0.818 0.24 0.95-0.243 3.552 1.336l0.448 0.27c0.189 0.112 0.128 0.048 0.317 0.032 1.003-0.282 2.157-0.452 3.349-0.469l0.010-0c1.136 0.014 2.272 0.176 3.403 0.483l0.146 0.016c-0.013-0.003 0.040-0.010 0.128-0.062 3.248-1.968 3.131-1.325 4.003-1.608 0.032 0.189 0.882 1.987 0.182 4.099-0.096 0.291 2.816 2.957 1.202 7.235-0.659 1.744-2.32 3.957-6.486 4.578 0.534 0.816 1.176 1.248 1.173 2.928v6.606c6.986-1.688 12.25-8.501 12.25-16 0-8.789-7.211-16-16-16z"></path>
</symbol>
<symbol id="icon-footer_github_icon_white" viewBox="0 0 32 32">
<path fill="#fcfcfc" style="fill: var(--color1, #fcfcfc)" d="M16 0.941c-8.272 0-15.059 6.787-15.059 15.059 0 7.058 4.952 13.469 11.53 15.059v-4.982c-0.653 0.142-1.251 0.147-1.915-0.048-0.89-0.264-1.613-0.856-2.15-1.76-0.341-0.578-0.947-1.203-1.581-1.157l-0.155-1.76c1.368-0.115 2.552 0.835 3.254 2.016 0.312 0.523 0.672 0.832 1.131 0.968 0.446 0.131 0.925 0.067 1.482-0.128 0.141-1.117 0.651-1.536 1.038-2.123-3.923-0.586-5.486-2.667-6.107-4.309-0.821-2.181-0.381-4.906 1.074-6.627 0.029-0.034 0.080-0.122 0.059-0.182-0.666-2.014 0.146-3.68 0.176-3.856 0.768 0.227 0.894-0.229 3.341 1.258l0.424 0.254c0.176 0.106 0.122 0.045 0.298 0.032 0.944-0.267 2.030-0.429 3.151-0.446l0.010-0c1.147 0.018 2.247 0.183 3.294 0.478l-0.090-0.022 0.136 0.013c-0.011 0 0.038-0.008 0.12-0.058 3.058-1.851 2.947-1.246 3.768-1.512 0.029 0.176 0.832 1.869 0.171 3.856-0.090 0.275 2.651 2.784 1.133 6.81-0.621 1.643-2.184 3.725-6.106 4.31 0.502 0.766 1.106 1.174 1.104 2.755v6.219c6.576-1.59 11.528-8 11.528-15.059 0-8.27-6.786-15.058-15.058-15.058z"></path>
</symbol>
<symbol id="icon-footer_telegram_icon_black" viewBox="0 0 44 32">
<path fill="#84a178" style="fill: var(--color3, #84a178)" d="M17.342 21.048l-0.674 8.86c0.966 0 1.384-0.388 1.886-0.852l4.526-4.040 9.38 6.414c1.72 0.894 2.934 0.422 3.398-1.478l6.158-26.932c0.546-2.374-0.92-3.302-2.594-2.72l-36.196 12.934c-2.47 0.896-2.432 2.18-0.418 2.766l9.252 2.684 21.494-12.552c1.012-0.626 1.932-0.28 1.174 0.346l-17.386 14.57z"></path>
</symbol>
<symbol id="icon-footer_telegram_icon_white" viewBox="0 0 40 32">
<path fill="#fff" style="fill: var(--color2, #fff)" d="M16.204 20.75l-0.634 8.34c0.908 0 1.3-0.366 1.774-0.802l4.26-3.8 8.83 6.034c1.62 0.84 2.76 0.398 3.196-1.39l5.796-25.346c0.516-2.236-0.864-3.108-2.44-2.56l-34.066 12.172c-2.326 0.84-2.29 2.052-0.396 2.6l8.71 2.528 20.226-11.814c0.952-0.588 1.82-0.264 1.106 0.326l-16.364 13.712z"></path>
</symbol>
</defs>
</svg>
